PathFileType	3	(X/Y/Z)	D:\minhoCalibration\240510\subject3_KPNP\preferred\preferred07.trc
DataRate	CameraRate	NumFrames	NumMarkers	Units	OrigDataRate	OrigDataStartFrame	OrigNumFrames
200.0	200.0	27	10	mm	200.0	147	126	
Frame#	Time	Left_Ankle_Outer1			Left_Ankle_Inner1			Left_Knee_Outer1			Left_Knee_Inner1			Left_Wrist1			Right_Wrist1			Right_Knee_Inner1			Right_Knee_Outer1			Right_Ankle_Inner1			Right_Ankle_Outer1			
		X1	Y1	Z1	X2	Y2	Z2	X3	Y3	Z3	X4	Y4	Z4	X5	Y5	Z5	X6	Y6	Z6	X7	Y7	Z7	X8	Y8	Z8	X9	Y9	Z9	X10	Y10	Z10	
147	0.725	-302.9693	131.76094	-504.78088	-354.66785	151.42097	-485.7348	-143.8795	533.2746	-432.57147	-217.9039	553.76074	-362.34732	-160.6731	890.44421	-704.42084	-349.47171	1129.3297	-483.69141	-272.83173	982.22858	-83.046494	-281.09735	1079.8861	-123.15027	-578.01837	949.74762	222.50652	-587.83118	1050.2913	221.42651
148	0.73	-303.10886	130.62518	-504.78625	-354.40598	150.43831	-486.73795	-145.26495	533.12018	-429.41962	-220.52039	553.65387	-360.09705	-163.68997	886.28894	-702.89429	-347.56183	1129.5487	-486.74979	-272.59839	989.71094	-85.335213	-279.90277	1083.684	-128.02586	-534.28845	980.32996	260.61197	-542.68372	1081.3856	252.85876
149	0.735	-302.9454	129.59621	-505.06009	-354.15756	149.51465	-487.67679	-146.4416	532.58545	-426.64502	-223.39156	553.33014	-358.78116	-166.62514	882.51062	-700.38153	-346.06088	1130.1265	-490.00165	-273.15817	995.96136	-86.845276	-280.81262	1086.9048	-131.37155	-482.33267	1010.5894	290.32245	-494.68182	1110.4779	276.62924
150	0.74	-302.62152	128.7928	-505.65964	-353.98355	148.65273	-488.56531	-147.75273	532.21906	-423.88016	-225.39395	552.66406	-357.25162	-169.13907	879.41925	-696.78113	-346.0032	1131.0901	-492.50143	-274.15942	1001.6806	-87.869507	-283.56137	1089.514	-133.83655	-426.0119	1039.4692	311.61771	-444.69446	1136.7571	292.09531
151	0.745	-301.66711	128.51358	-506.73251	-353.76398	147.82042	-489.42792	-148.63345	531.79376	-421.68088	-226.94429	551.68976	-354.85352	-171.33461	877.01129	-692.23309	-346.80423	1132.9248	-494.61154	-274.82379	1006.9196	-88.905937	-288.78482	1092.913	-136.03563	-380.16965	1061.941	317.81577	-391.8685	1161.0547	295.76965
152	0.75	-301.36972	127.849	-507.34799	-353.78589	146.93265	-490.25772	-149.73338	531.2157	-419.61832	-228.22588	550.29388	-353.6864	-173.35211	875.47394	-686.73865	-348.24792	1135.3066	-495.909	-274.07632	1011.1019	-90.354477	-296.00357	1100.0426	-138.24348	-350.99765	1080.2544	315.63406	-359.49881	1180.7587	288.93048
153	0.755	-301.22919	127.17086	-508.02869	-353.67792	146.38351	-491.1199	-150.40361	530.62726	-417.89462	-229.09398	548.85046	-351.20764	-175.01787	874.82355	-680.35864	-350.20358	1137.1853	-496.79907	-271.35764	1014.1198	-92.00309	-303.04907	1108.5916	-140.72377	-347.25989	1095.1494	317.74448	-343.32104	1189.9326	282.93896
154	0.76	-301.40134	126.26704	-508.4216	-353.54404	145.72794	-491.97641	-151.34174	529.81464	-416.11133	-230.00867	547.79034	-348.62323	-175.95514	874.81659	-673.34918	-350.07446	1138.5723	-496.8439	-265.56705	1016.89	-92.764603	-309.58884	1115.2295	-142.2851	-348.77536	1099.134	312.92642	-339.62064	1197.2112	282.43903
155	0.765	-300.28436	126.10876	-509.12875	-353.24942	145.0479	-492.79785	-152.1218	529.12683	-414.25146	-229.85994	546.30487	-346.17911	-176.24953	875.11853	-665.76538	-353.27451	1138.1288	-496.22156	-256.37695	1022.9346	-93.687309	-309.78165	1120.6417	-144.19678	-348.8577	1093.3995	307.61981	-340.69391	1196.3336	284.42154
156	0.77	-299.2894	125.81837	-509.42279	-352.51392	144.58003	-493.38013	-153.24667	528.50195	-412.10852	-230.53093	544.55304	-343.80548	-175.8857	875.50262	-657.9292	-356.58627	1137.7406	-495.85196	-245.4006	1031.5325	-95.699158	-301.87854	1126.6431	-144.6523	-345.75363	1086.2955	306.43491	-344.82785	1188.1323	286.34961
157	0.775	-299.14877	124.85977	-508.8262	-351.69547	144.23441	-493.88315	-154.43762	528.0871	-409.78806	-231.16211	542.53998	-341.16333	-174.7605	876.42407	-650.23169	-359.46295	1136.9705	-494.72363	-236.4305	1040.993	-98.853882	-290.09174	1131.1294	-142.62074	-342.39761	1080.7943	308.09985	-350.05075	1180.751	289.91907
158	0.78	-297.43982	124.83852	-508.73584	-350.59814	143.95073	-494.48877	-155.74274	527.87909	-407.38037	-231.76628	541.62231	-338.07599	-173.85559	876.77283	-643.19366	-365.18875	1136.3422	-495.67087	-231.71765	1049.312	-102.14039	-277.48334	1130.6144	-141.35791	-336.55731	1074.7219	306.845	-352.56024	1173.7736	291.11728
159	0.785	-296.62674	124.53721	-508.08035	-349.59943	143.63951	-495.01828	-157.33214	527.84717	-404.55081	-233.08789	540.81268	-335.56314	-172.58693	877.5061	-637.19244	-369.66455	1135.0594	-493.7691	-234.24953	1051.9266	-101.21241	-268.45612	1127.4663	-142.77658	-332.10059	1067.7743	305.78287	-352.74918	1166.749	292.79236
160	0.79	-295.09534	124.65478	-507.88809	-348.78333	143.49387	-495.2258	-158.92323	527.83972	-401.3381	-235.1557	540.63611	-333.11325	-171.18869	878.17773	-632.45868	-372.97913	1134.6215	-491.14902	-239.44673	1048.3516	-97.829697	-266.31735	1122.8198	-146.29639	-327.79904	1061.1302	304.98456	-350.68207	1160.2057	295.13599
161	0.795	-294.36298	124.62187	-507.52716	-348.03244	143.22388	-495.84067	-160.58662	528.03699	-397.89142	-238.73541	541.03192	-331.70755	-169.91246	878.53918	-628.78809	-376.97681	1133.5212	-488.88437	-243.86436	1042.9044	-96.361397	-270.2933	1119.3058	-148.85359	-323.92542	1056.4153	306.72391	-349.05148	1154.9271	298.08273
162	0.8	-293.64441	124.84397	-507.1683	-347.57501	143.24203	-495.97382	-162.12482	528.30829	-394.41168	-242.05516	541.63837	-330.4299	-168.61647	878.64221	-626.00269	-380.91464	1132.6797	-486.88943	-247.42892	1037.4221	-96.461441	-279.06616	1118.8922	-147.90053	-319.26492	1052.0048	310.0513	-347.5571	1150.1471	300.7981
163	0.805	-293.54202	125.07372	-506.41208	-347.25992	143.45691	-495.85767	-163.7717	529.03815	-390.80093	-245.33408	542.27307	-328.83487	-167.0874	878.7226	-623.71027	-385.09393	1131.5897	-484.63943	-250.72139	1032.6412	-96.652557	-288.79443	1119.4039	-144.96057	-315.3501	1046.613	313.47067	-347.59787	1144.129	303.20374
164	0.81	-292.81116	125.74379	-506.0907	-346.96799	143.69901	-495.59174	-165.08398	529.74963	-387.59286	-248.67809	543.02435	-328.73911	-165.4926	878.61456	-621.43152	-389.63885	1130.1949	-482.46512	-254.10742	1028.7373	-96.286133	-298.79913	1117.9702	-140.92526	-311.37051	1039.7257	312.46271	-348.54242	1136.748	305.14282
165	0.815	-292.76077	126.07887	-505.58041	-346.8139	144.00584	-495.26892	-166.26651	530.5365	-384.75537	-251.25394	543.74329	-327.78354	-163.86816	878.83289	-619.00659	-394.36075	1128.4908	-480.41278	-257.73895	1025.4453	-95.667046	-309.3837	1113.3958	-135.7076	-306.11865	1032.9132	311.98212	-349.68906	1128.3823	307.32739
166	0.82	-292.99335	126.1117	-504.85443	-346.67877	144.2108	-495.07474	-167.29292	531.36816	-382.35898	-253.87589	544.28143	-327.80728	-161.98381	879.41663	-616.47266	-399.74292	1128.0653	-476.68582	-261.38748	1022.3081	-94.999847	-319.27173	1106.7135	-130.1328	-300.81354	1025.9397	311.47153	-351.17984	1119.1125	309.67944
167	0.825	-292.43018	126.58687	-504.82202	-346.58701	144.16136	-495.12863	-168.73347	532.15704	-380.29416	-255.96899	544.95294	-327.55878	-160.11665	880.40234	-613.9826	-403.76257	1125.7045	-474.33585	-265.2308	1018.8325	-94.151512	-328.56848	1098.4015	-124.91288	-295.77713	1017.4782	310.57669	-353.02341	1107.5745	312.18616
168	0.83	-292.3172	126.6053	-504.59988	-346.38412	144.06491	-495.32681	-170.20766	532.57019	-378.81174	-258.1572	545.52612	-327.43005	-158.40833	881.67645	-611.54523	-407.27304	1122.197	-471.57547	-268.56396	1015.2143	-93.515152	-337.12778	1089.927	-121.26733	-291.05957	1007.0319	308.70676	-355.07083	1093.3015	315.09222
169	0.835	-292.10013	126.55753	-504.55051	-346.23862	143.88774	-495.66058	-171.5296	533.03162	-378.02548	-259.94391	545.97052	-327.60654	-156.87521	883.21625	-609.31396	-410.83957	1119.9786	-469.82318	-272.91986	1010.8168	-92.655098	-345.26004	1082.8584	-119.65614	-286.75882	998.92554	310.39606	-358.33676	1077.9885	318.00098
170	0.84	-291.96164	126.45827	-504.556	-346.15427	143.64354	-496.06223	-172.28877	533.48895	-377.92258	-262.45294	546.73639	-328.11072	-155.22673	884.92877	-607.29401	-414.02789	1117.4731	-468.25345	-277.71967	1005.989	-91.788177	-353.73679	1076.8009	-118.89064	-283.83603	989.04492	311.33603	-361.68265	1061.0311	320.49399
171	0.845	-291.68127	126.41066	-504.71872	-346.01947	143.50345	-496.49985	-173.14059	534.02625	-377.99405	-263.38846	546.86414	-328.89697	-154.07812	886.75861	-605.02795	-417.60034	1114.342	-467.48798	-282.20221	1001.0631	-90.958435	-361.47006	1070.7113	-118.28497	-283.10703	972.33075	307.61243	-365.00009	1042.9375	322.02515
172	0.85	-291.46262	126.1996	-504.93329	-345.8862	143.26253	-496.95059	-173.80484	534.59045	-378.2995	-264.28726	546.64001	-330.01349	-152.31662	888.98291	-603.0354	-420.01169	1112.056	-466.00412	-285.77139	996.63965	-90.226204	-368.54733	1063.774	-117.22128	-282.90463	958.80481	307.48471	-368.17596	1024.2803	322.24866
173	0.855	-291.21594	125.90909	-505.11588	-345.77432	143.00569	-497.4451	-174.32573	535.09351	-378.80847	-265.43951	546.46936	-331.08655	-150.79271	891.37769	-600.87659	-423.10605	1109.1072	-464.87579	-287.73553	992.65063	-90.217781	-375.24615	1056.62	-115.03463	-284.31909	944.49725	307.97189	-372.6843	1005.6137	322.16748
